<svg preserveAspectRatio="none" width="100%" height="100%" overflow="visible" style="display: block;" viewBox="0 0 48 48" fill="none" xmlns="http://www.w3.org/2000/svg">
<g id="Health Book Icon">
<rect width="48" height="48" rx="24" fill="var(--fill-0, #0068FF)"/>
<path id="Vector" d="M35.4901 30.5466L30.0013 25.0581C28.9186 23.9754 27.3015 23.7645 25.9984 24.4066L21.0018 19.4102V16.4996L15.0022 12L12.0023 14.9997L16.5021 20.9991H19.4129L24.4095 25.9955C23.772 27.2985 23.9782 28.9155 25.061 29.9982L30.5497 35.4868C31.2341 36.1711 32.3403 36.1711 33.0199 35.4868L35.4901 33.0167C36.1697 32.3324 36.1697 31.2262 35.4901 30.5466ZM27.5499 22.5458C28.8764 22.5458 30.1232 23.0614 31.0607 23.9988L31.97 24.9081C32.7106 24.5847 33.4137 24.1348 34.023 23.5254C35.762 21.7865 36.3526 19.3399 35.7995 17.1183C35.6963 16.6964 35.1667 16.5511 34.8573 16.8605L31.37 20.3476L28.1874 19.818L27.6577 16.6355L31.145 13.1483C31.4544 12.839 31.3044 12.3093 30.8779 12.2015C28.6561 11.6532 26.2094 12.2437 24.4751 13.9779C23.1392 15.3137 22.5111 17.0761 22.5439 18.8337L26.3922 22.6818C26.7718 22.5927 27.1656 22.5458 27.5499 22.5458ZM22.6799 26.3892L20.0222 23.7317L12.8789 30.8794C11.707 32.0512 11.707 33.9494 12.8789 35.1212C14.0507 36.2929 15.949 36.2929 17.1208 35.1212L22.9142 29.328C22.558 28.3953 22.4502 27.3782 22.6799 26.3892ZM15.0022 34.1228C14.3835 34.1228 13.8772 33.6166 13.8772 32.998C13.8772 32.3746 14.3788 31.8731 15.0022 31.8731C15.6256 31.8731 16.1271 32.3746 16.1271 32.998C16.1271 33.6166 15.6256 34.1228 15.0022 34.1228Z" fill="var(--fill-0, white)"/>
</g>
</svg>
