<svg preserveAspectRatio="none" width="100%" height="100%" overflow="visible" style="display: block;" viewBox="0 0 48 48" fill="none" xmlns="http://www.w3.org/2000/svg">
<g id="Health Icon">
<rect width="48" height="48" rx="24" fill="var(--fill-0, #0068FF)"/>
<path id="Vector" d="M23.1466 12.2566C23.6621 11.9145 24.3368 11.9145 24.8523 12.2566L25.6864 12.805C25.9676 12.9878 26.2956 13.0769 26.6283 13.0581L27.6264 12.9972C28.2449 12.9597 28.826 13.2972 29.1025 13.8503L29.5523 14.7455C29.7023 15.0455 29.9459 15.2845 30.2411 15.4345L31.1455 15.8892C31.6985 16.1657 32.0359 16.7469 31.9984 17.3657L31.9375 18.364C31.9187 18.6968 32.0077 19.0296 32.1905 19.3062L32.7434 20.1405C33.0855 20.6561 33.0855 21.331 32.7434 21.8466L32.1905 22.6856C32.0077 22.9668 31.9187 23.295 31.9375 23.6277L31.9984 24.6261C32.0359 25.2448 31.6985 25.826 31.1455 26.1026L30.2505 26.5525C29.9506 26.7025 29.7116 26.9463 29.5617 27.2416L29.1071 28.1462C28.8307 28.6993 28.2496 29.0368 27.6311 28.9993L26.633 28.9383C26.3003 28.9196 25.9676 29.0086 25.6911 29.1914L24.857 29.7445C24.3415 30.0867 23.6668 30.0867 23.1513 29.7445L22.3125 29.1914C22.0314 29.0086 21.7033 28.9196 21.3706 28.9383L20.3725 28.9993C19.754 29.0368 19.1729 28.6993 18.8965 28.1462L18.4466 27.2509C18.2966 26.951 18.053 26.7119 17.7578 26.5619L16.8534 26.1073C16.3004 25.8307 15.963 25.2495 16.0005 24.6308L16.0614 23.6324C16.0802 23.2996 15.9912 22.9668 15.8084 22.6903L15.2602 21.8513C14.9181 21.3357 14.9181 20.6608 15.2602 20.1452L15.8084 19.3108C15.9912 19.0296 16.0802 18.7015 16.0614 18.3687L16.0005 17.3703C15.963 16.7516 16.3004 16.1704 16.8534 15.8939L17.7484 15.4439C18.0483 15.2892 18.292 15.0455 18.4419 14.7455L18.8918 13.8503C19.1682 13.2972 19.7493 12.9597 20.3678 12.9972L21.3659 13.0581C21.6987 13.0769 22.0314 12.9878 22.3078 12.805L23.1466 12.2566ZM27.7482 20.9982C27.7482 20.0037 27.3533 19.05 26.6502 18.3468C25.9472 17.6435 24.9937 17.2485 23.9995 17.2485C23.0052 17.2485 22.0517 17.6435 21.3487 18.3468C20.6456 19.05 20.2507 20.0037 20.2507 20.9982C20.2507 21.9927 20.6456 22.9465 21.3487 23.6497C22.0517 24.3529 23.0052 24.748 23.9995 24.748C24.9937 24.748 25.9472 24.3529 26.6502 23.6497C27.3533 22.9465 27.7482 21.9927 27.7482 20.9982ZM15.0633 32.7068L17.083 27.9025C17.0924 27.9071 17.097 27.9118 17.1017 27.9212L17.5516 28.8165C18.0998 29.9039 19.2385 30.5648 20.4569 30.4945L21.455 30.4335C21.4644 30.4335 21.4784 30.4335 21.4878 30.4429L22.3219 30.996C22.5609 31.1507 22.8139 31.2725 23.0763 31.3569L21.3144 35.5426C21.2066 35.8004 20.9676 35.9738 20.6912 35.9972C20.4147 36.0207 20.1476 35.8941 19.9977 35.6598L18.4888 33.349L15.86 33.738C15.5929 33.7755 15.3258 33.6677 15.1571 33.4568C14.9884 33.2459 14.9556 32.9552 15.0587 32.7068H15.0633ZM26.6845 35.5379L24.9226 31.3569C25.185 31.2725 25.438 31.1554 25.677 30.996L26.5111 30.4429C26.5205 30.4382 26.5299 30.4335 26.5439 30.4335L27.542 30.4945C28.7604 30.5648 29.8991 29.9039 30.4473 28.8165L30.8972 27.9212C30.9019 27.9118 30.9065 27.9071 30.9159 27.9025L32.9403 32.7068C33.0433 32.9552 33.0059 33.2412 32.8418 33.4568C32.6778 33.6724 32.4061 33.7802 32.139 33.738L29.5101 33.349L28.0013 35.6551C27.8513 35.8894 27.5842 36.016 27.3077 35.9925C27.0313 35.9691 26.7923 35.791 26.6845 35.5379Z" fill="var(--fill-0, white)"/>
</g>
</svg>
