<svg preserveAspectRatio="none" width="100%" height="100%" overflow="visible" style="display: block;" viewBox="0 0 48 48" fill="none" xmlns="http://www.w3.org/2000/svg">
<g id="Health Book Icon">
<rect width="48" height="48" rx="24" fill="var(--fill-0, #0068FF)"/>
<path id="Vector" d="M33.6479 15.9227L24.8479 12.1723C24.5799 12.0585 24.2925 12 24.0023 12C23.7121 12 23.4247 12.0585 23.1567 12.1723L14.3567 15.9227C13.5362 16.2696 13 17.09 13 17.9994C13 27.305 18.2479 33.7369 23.1521 35.8277C23.6929 36.0574 24.3025 36.0574 24.8433 35.8277C28.7712 34.1541 35 28.3739 35 17.9994C35 17.09 34.4638 16.2696 33.6479 15.9227ZM24.0046 32.9212L24 15.0601L32.0621 18.4963C31.9108 25.5939 28.2992 30.7366 24.0046 32.9212Z" fill="var(--fill-0, white)"/>
</g>
</svg>
