<svg preserveAspectRatio="none" width="100%" height="100%" overflow="visible" style="display: block;" viewBox="0 0 48 48" fill="none" xmlns="http://www.w3.org/2000/svg">
<g id="Health Icon">
<rect width="48" height="48" rx="24" fill="var(--fill-0, #0068FF)"/>
<path id="Vector" d="M18.7508 28.5C24.137 28.5 28.5012 24.8062 28.5012 20.25C28.5012 15.6938 24.137 12 18.7508 12C13.3647 12 9.00051 15.6938 9.00051 20.25C9.00051 22.0594 9.6896 23.7328 10.8568 25.0969C10.6928 25.5375 10.449 25.9266 10.1912 26.2547C9.96617 26.5453 9.73648 26.7703 9.56772 26.925C9.48334 27 9.41303 27.0609 9.36615 27.0984C9.34271 27.1172 9.32396 27.1312 9.31459 27.1359L9.30521 27.1453C9.04739 27.3375 8.93489 27.675 9.03801 27.9797C9.14114 28.2844 9.42709 28.5 9.75054 28.5C10.7724 28.5 11.8037 28.2375 12.6616 27.9141C13.0928 27.75 13.496 27.5672 13.8476 27.3797C15.2867 28.0922 16.9602 28.5 18.7508 28.5ZM30.0012 20.25C30.0012 25.5141 25.3558 29.4797 19.8524 29.9531C20.9915 33.4406 24.7698 36 29.2512 36C31.0419 36 32.7154 35.5922 34.1592 34.8797C34.5108 35.0672 34.9092 35.25 35.3405 35.4141C36.1983 35.7375 37.2296 36 38.2515 36C38.575 36 38.8656 35.7891 38.964 35.4797C39.0625 35.1703 38.9547 34.8328 38.6921 34.6406L38.6828 34.6312C38.6734 34.6219 38.6546 34.6125 38.6312 34.5938C38.5843 34.5562 38.514 34.5 38.4296 34.4203C38.2609 34.2656 38.0312 34.0406 37.8062 33.75C37.5484 33.4219 37.3046 33.0281 37.1405 32.5922C38.3078 31.2328 38.9968 29.5594 38.9968 27.7453C38.9968 23.3953 35.017 19.8281 29.9684 19.5187C29.9872 19.7578 29.9965 20.0016 29.9965 20.2453L30.0012 20.25Z" fill="var(--fill-0, white)"/>
</g>
</svg>
