<svg preserveAspectRatio="none" width="100%" height="100%" overflow="visible" style="display: block;" viewBox="0 0 32 32" fill="none" xmlns="http://www.w3.org/2000/svg">
<g id="Button">
<rect width="32" height="32" rx="12" fill="var(--fill-0, #FBFBFB)"/>
<path id="Vector" d="M16 6C10.4777 6 6 10.4777 6 16C6 21.5223 10.4777 26 16 26C21.5223 26 26 21.5223 26 16C26 10.4777 21.5223 6 16 6ZM19.7277 20.1429C18.8214 20.9777 17.5848 21.4688 16.1094 21.4688C13.9732 21.4688 12.125 20.2433 11.2254 18.4576C10.8549 17.7187 10.6429 16.8839 10.6429 16C10.6429 15.1161 10.8549 14.2813 11.2254 13.5424C12.125 11.7545 13.9732 10.529 16.1094 10.529C17.5826 10.529 18.8192 11.0714 19.7679 11.9531L18.2009 13.5223C17.6339 12.9799 16.9129 12.7054 16.1116 12.7054C14.6875 12.7054 13.4821 13.6674 13.0513 14.9598C12.942 15.2879 12.8795 15.6384 12.8795 16C12.8795 16.3616 12.942 16.7121 13.0513 17.0402C13.4821 18.3326 14.6875 19.2946 16.1094 19.2946C16.846 19.2946 17.471 19.1004 17.9598 18.7723C18.5402 18.3839 18.9241 17.8058 19.0513 17.1205H16.1094V15.0045H21.2589C21.3237 15.3638 21.3571 15.7366 21.3571 16.1228C21.3571 17.7902 20.7612 19.1897 19.7277 20.1429Z" fill="var(--fill-0, black)"/>
</g>
</svg>
