<svg preserveAspectRatio="none" width="100%" height="100%" overflow="visible" style="display: block;" viewBox="0 0 52 54" fill="none" xmlns="http://www.w3.org/2000/svg">
<g id="Icon container">
<rect width="52" height="54" rx="14" fill="var(--fill-0, #006BC7)"/>
<path id="Vector" d="M26 33.8095C27.65 33.8095 29 32.6952 29 31.3333C29 29.9714 27.65 28.8571 26 28.8571C24.35 28.8571 23 29.9714 23 31.3333C23 32.6952 24.35 33.8095 26 33.8095ZM35 22.6667H33.5V20.1905C33.5 16.7733 30.14 14 26 14C21.86 14 18.5 16.7733 18.5 20.1905V22.6667H17C15.35 22.6667 14 23.781 14 25.1429V37.5238C14 38.8857 15.35 40 17 40H35C36.65 40 38 38.8857 38 37.5238V25.1429C38 23.781 36.65 22.6667 35 22.6667ZM21.35 20.1905C21.35 18.0733 23.435 16.3524 26 16.3524C28.565 16.3524 30.65 18.0733 30.65 20.1905V22.6667H21.35V20.1905ZM35 37.5238H17V25.1429H35V37.5238Z" fill="var(--fill-0, white)"/>
</g>
</svg>
