<svg preserveAspectRatio="none" width="100%" height="100%" overflow="visible" style="display: block;" viewBox="0 0 54 56" fill="none" xmlns="http://www.w3.org/2000/svg">
<g id="Icon container">
<rect width="54" height="56" rx="14" fill="var(--fill-0, #006BC7)"/>
<path id="Vector" d="M27 14L38.8689 16.324C39.5298 16.4534 40 16.9699 40 17.5664V30.2768C40 32.83 38.5518 35.2143 36.1407 36.6306L27 42L17.8593 36.6306C15.4482 35.2143 14 32.83 14 30.2768V17.5664C14 16.9699 14.4702 16.4534 15.1311 16.324L27 14ZM27 16.6076L16.8889 18.5873V30.2768C16.8889 31.9789 17.8544 33.5684 19.4617 34.5127L27 38.9407L34.5383 34.5127C36.1456 33.5684 37.1111 31.9789 37.1111 30.2768V18.5873L27 16.6076ZM27 21.6364C28.5955 21.6364 29.8889 22.776 29.8889 24.1818C29.8889 25.1234 29.3087 25.9456 28.446 26.3859L28.4444 31.8182H25.5556L25.5554 26.3867C24.6921 25.9466 24.1111 25.124 24.1111 24.1818C24.1111 22.776 25.4045 21.6364 27 21.6364Z" fill="var(--fill-0, white)"/>
</g>
</svg>
