<svg preserveAspectRatio="none" width="100%" height="100%" overflow="visible" style="display: block;" viewBox="0 0 52 52" fill="none" xmlns="http://www.w3.org/2000/svg">
<g id="Icon container">
<rect width="52" height="52" rx="14" fill="var(--fill-0, #006BC7)"/>
<path id="Vector" d="M27.4961 14C25.4963 14 23.8097 15.6024 23.8097 17.653C23.8097 18.6887 24.2404 19.6098 24.924 20.2681L25.3519 19.3312C24.9542 18.8703 24.7186 18.2822 24.7186 17.653C24.7186 16.2272 25.9261 15.0116 27.4961 15.0116C29.0661 15.0116 30.2735 16.2272 30.2735 17.653C30.2735 18.631 29.7053 19.5101 28.8416 19.9658L28.4637 21.1772C28.5597 21.1513 28.6543 21.1218 28.7472 21.0884L29.2097 21.9883C28.6882 22.3965 28.1835 22.9025 27.6425 23.5323L31.7506 33.614C34.2889 33.7442 36.738 32.2464 38 29.7919L32.5547 20.5281C31.5363 20.7544 30.717 21.0369 29.9856 21.4609L29.577 20.666C30.5394 20.0133 31.1825 18.9188 31.1825 17.653C31.1825 15.6025 29.496 14.0001 27.4961 14.0001V14ZM21.3016 14.3342C21.1673 14.3359 21.0262 14.3606 20.89 14.41C20.5784 14.5226 20.3148 14.7547 20.2002 15.0051L20.1856 15.0372L16.908 20.2242C16.8002 20.4744 16.7877 20.8394 16.885 21.1779C16.9844 21.5239 17.1902 21.8132 17.4001 21.9322L24.6559 26.0438C24.8616 26.1604 25.1907 26.1789 25.4966 26.0677C25.7968 25.9587 26.0519 25.737 26.1735 25.4781L27.4541 21.3047C27.4566 21.3047 27.4592 21.3049 27.4617 21.305L27.7812 20.2804C27.7769 20.2809 27.7724 20.281 27.7681 20.2815L28.0158 19.4742L28.0304 19.4422C28.145 19.1918 28.1587 18.8173 28.0582 18.471C27.9577 18.1247 27.7501 17.8329 27.5313 17.7088L25.9114 16.7909C25.581 17.2505 25.4796 17.9075 25.8939 18.5258L26.0005 18.7243L26.52 19.0278L26.1031 19.939L26.0957 19.935L25.6857 20.8326C25.688 20.8338 25.6903 20.835 25.6926 20.8362L25.3743 21.5317L20.2441 18.6246L21.1837 16.5712L21.3898 16.1205L22.9479 17.0035C23.0265 16.4522 23.1965 15.9218 23.4698 15.4072L21.7632 14.4403C21.6363 14.3684 21.4743 14.3321 21.3016 14.3342ZM32.3068 21.7177L33.5229 24.1804L29.8938 26.3997L28.8966 24.3804L28.6777 23.9372L32.3068 21.7177V21.7177ZM31.9479 23.0914L29.9122 24.3365L30.2527 25.026L32.2884 23.781L31.9479 23.0914ZM18.8544 23.8915L17.8004 26.1953L21.3105 28.1843L22.3646 25.8805L18.8544 23.8915ZM33.8633 24.8699L35.0793 27.3324L31.4503 29.5517L30.4532 27.5325L30.2344 27.0892L33.8634 24.8698L33.8633 24.8699ZM33.5045 26.2435L31.4687 27.4886L31.8092 28.1781L33.845 26.9331L33.5045 26.2435H33.5045ZM18.108 27.5047H18.1079L14 36.4828L14.3092 37.5411L18.211 29.0136L19.0209 29.4726L15.1192 38L16.2491 37.5912L16.904 37.3542L16.5512 36.1427L17.6367 35.751L17.2834 34.5423L18.3702 34.149L18.099 33.2215L20.178 28.6776L18.108 27.5047Z" fill="var(--fill-0, white)"/>
</g>
</svg>
