<svg preserveAspectRatio="none" width="100%" height="100%" overflow="visible" style="display: block;" viewBox="0 0 16 16" fill="none" xmlns="http://www.w3.org/2000/svg">
<g id="svg">
<path id="Vector" d="M11.5 0.5H9V11C9 12.1046 8.10457 13 7 13C5.89543 13 5 12.1046 5 11C5 9.89543 5.89543 9 7 9C7.17 9 7.33 9.02 7.5 9.05V6.53C7.33 6.51 7.17 6.5 7 6.5C4.51472 6.5 2.5 8.51472 2.5 11C2.5 13.4853 4.51472 15.5 7 15.5C9.48528 15.5 11.5 13.4853 11.5 11V5.75C12.4318 6.47667 13.587 6.9 14.5 6.9V4.4C12.8431 4.4 11.5 2.83 11.5 1.25V0.5Z" fill="var(--fill-0, #003A66)"/>
</g>
</svg>
