<svg preserveAspectRatio="none" width="100%" height="100%" overflow="visible" style="display: block;" viewBox="0 0 16 16" fill="none" xmlns="http://www.w3.org/2000/svg">
<g id="svg">
<path id="Vector" d="M14.537 6.69433H14V6.66667H8V9.33333H11.7677C11.218 10.8857 9.741 12 8 12C5.791 12 4 10.209 4 8C4 5.791 5.791 4 8 4C9.01967 4 9.94733 4.38467 10.6537 5.013L12.5393 3.12733C11.3487 2.01767 9.756 1.33333 8 1.33333C4.31833 1.33333 1.33333 4.31833 1.33333 8C1.33333 11.6817 4.31833 14.6667 8 14.6667C11.6817 14.6667 14.6667 11.6817 14.6667 8C14.6667 7.553 14.6207 7.11667 14.537 6.69433Z" fill="var(--fill-0, #003A66)"/>
<g id="Vector_2">
</g>
<g id="Vector_3">
</g>
<g id="Vector_4">
</g>
</g>
</svg>
