<svg preserveAspectRatio="none" width="100%" height="100%" overflow="visible" style="display: block;" viewBox="0 0 492 530" fill="none" xmlns="http://www.w3.org/2000/svg">
<path id="Union" d="M353 273C357.418 273 361 269.418 361 265C361 260.582 357.418 257 353 257H278C264.745 257 254 246.255 254 233V153.5C254 149.082 250.418 145.5 246 145.5C241.582 145.5 238 149.082 238 153.5V233C238 246.255 227.255 257 214 257H144C139.582 257 136 260.582 136 265C136 269.418 139.582 273 144 273H214C227.255 273 238 283.745 238 297V377C238 381.418 241.582 385 246 385C250.418 385 254 381.418 254 377V297C254 283.745 264.745 273 278 273H353ZM468 273C481.255 273 492 283.745 492 297V506C492 519.255 481.255 530 468 530H278C264.745 530 254 519.255 254 506V427C254 422.582 250.418 419 246 419C241.582 419 238 422.582 238 427V506C238 519.255 227.255 530 214 530H24C10.7452 530 0 519.255 0 506V297C7.73154e-07 283.745 10.7452 273 24 273H94C98.4183 273 102 269.418 102 265C102 260.582 98.4183 257 94 257H24C10.7452 257 0 246.255 0 233V24C7.73154e-07 10.7452 10.7452 5.89412e-05 24 0H214C227.255 0 238 10.7452 238 24V103.5C238 107.918 241.582 111.5 246 111.5C250.418 111.5 254 107.918 254 103.5V24C254 10.7452 264.745 4.9664e-05 278 0H468C481.255 0 492 10.7452 492 24V233C492 246.255 481.255 257 468 257H393C388.582 257 385 260.582 385 265C385 269.418 388.582 273 393 273H468Z" fill="var(--fill-0, #006BC7)"/>
</svg>
