<svg preserveAspectRatio="none" width="100%" height="100%" overflow="visible" style="display: block;" viewBox="0 0 32 32" fill="none" xmlns="http://www.w3.org/2000/svg">
<g id="Button">
<rect width="32" height="32" rx="12" fill="var(--fill-0, #FBFBFB)"/>
<path id="Vector" d="M26 16.0612C26 10.5044 21.5231 6 16.0012 6C10.4769 6.00125 6 10.5044 6 16.0625C6 21.0831 9.65704 25.2451 14.4364 26V18.9696H11.8993V16.0625H14.4389V13.844C14.4389 11.3231 15.9325 9.93076 18.216 9.93076C19.3108 9.93076 20.4544 10.127 20.4544 10.127V12.6017H19.1933C17.9523 12.6017 17.5648 13.3778 17.5648 14.174V16.0612H20.337L19.8945 18.9684H17.5636V25.9988C22.343 25.2438 26 21.0819 26 16.0612Z" fill="var(--fill-0, black)"/>
</g>
</svg>
