<svg preserveAspectRatio="none" width="100%" height="100%" overflow="visible" style="display: block;" viewBox="0 0 32 32" fill="none" xmlns="http://www.w3.org/2000/svg">
<g id="Button">
<rect width="32" height="32" rx="12" fill="var(--fill-0, #FBFBFB)"/>
<path id="Vector" d="M16 6C21.5228 6 26 10.4771 26 16C26 21.5228 21.5228 26 16 26C14.1661 26 12.4475 25.5064 10.9699 24.6447L6.00418 26L7.35614 21.0315C6.49396 19.5536 6 17.8345 6 16C6 10.4771 10.4771 6 16 6ZM12.3913 11.3083C12.2619 11.3174 12.1351 11.349 12.0196 11.4081C11.9329 11.4524 11.8525 11.5165 11.7261 11.6359C11.6068 11.7485 11.5376 11.847 11.4647 11.9419C11.095 12.4232 10.8963 13.0141 10.9 13.621C10.902 14.1116 11.0294 14.5884 11.2307 15.0336C11.6388 15.9364 12.3119 16.8908 13.201 17.7759C13.4145 17.9885 13.6237 18.2034 13.8494 18.402C14.9528 19.3736 16.2678 20.0742 17.6897 20.4482C17.6897 20.4482 18.2497 20.5342 18.2579 20.5347C18.4434 20.5447 18.6286 20.5313 18.8143 20.5218C19.1056 20.5068 19.39 20.428 19.6474 20.2909C19.8129 20.2028 19.8912 20.159 20.0301 20.0714C20.0301 20.0714 20.0727 20.0426 20.1549 19.9814C20.2899 19.8808 20.3733 19.81 20.4856 19.6934C20.5684 19.6074 20.6396 19.5058 20.6946 19.3913C20.7728 19.2281 20.8515 18.9166 20.8828 18.6579C20.9067 18.4603 20.8995 18.3523 20.8969 18.2854C20.8926 18.1778 20.8037 18.0671 20.7063 18.0201L20.1248 17.7587C20.1248 17.7587 19.2553 17.3803 18.7235 17.1377C18.6681 17.1124 18.6075 17.1007 18.5466 17.097C18.4132 17.0888 18.2637 17.1236 18.1686 17.2238C18.1636 17.2218 18.0974 17.279 17.3739 18.1555C17.334 18.2032 17.2405 18.3069 17.0788 18.2972C17.0544 18.2955 17.0301 18.292 17.0064 18.2858C16.9409 18.2685 16.8771 18.2457 16.8147 18.2193C16.691 18.1668 16.6476 18.1469 16.5631 18.1105C15.9858 17.8583 15.456 17.5209 14.9877 17.108C14.8621 16.9974 14.7453 16.8783 14.6249 16.7616C14.2047 16.3543 13.8607 15.9211 13.6048 15.4938C13.5908 15.4705 13.5693 15.4368 13.5461 15.3991C13.5042 15.331 13.458 15.25 13.4436 15.1944C13.4064 15.0473 13.505 14.9291 13.505 14.9291C13.505 14.9291 13.7484 14.663 13.8615 14.5183C13.9703 14.379 14.0642 14.2428 14.124 14.1457C14.2418 13.9563 14.2791 13.7606 14.2172 13.6096C13.9367 12.9256 13.6472 12.2454 13.3489 11.5689C13.29 11.4355 13.1149 11.3385 12.9556 11.3201C12.9017 11.3138 12.8478 11.3076 12.7936 11.304C12.6595 11.2975 12.5252 11.2989 12.3913 11.3083Z" fill="var(--fill-0, black)"/>
</g>
</svg>
