<svg preserveAspectRatio="none" width="100%" height="100%" overflow="visible" style="display: block;" viewBox="0 0 40 40" fill="none" xmlns="http://www.w3.org/2000/svg">
<g id="Button">
<rect width="40" height="40" rx="12" fill="#004CDB"/>
<path id="Vector" d="M20 25.5C21.1 25.5 22 24.6 22 23.5C22 22.4 21.1 21.5 20 21.5C18.9 21.5 18 22.4 18 23.5C18 24.6 18.9 25.5 20 25.5ZM26 16.5H25V14.5C25 11.74 22.76 9.5 20 9.5C17.24 9.5 15 11.74 15 14.5V16.5H14C12.9 16.5 12 17.4 12 18.5V28.5C12 29.6 12.9 30.5 14 30.5H26C27.1 30.5 28 29.6 28 28.5V18.5C28 17.4 27.1 16.5 26 16.5ZM16.9 14.5C16.9 12.79 18.29 11.4 20 11.4C21.71 11.4 23.1 12.79 23.1 14.5V16.5H16.9V14.5ZM26 28.5H14V18.5H26V28.5Z" fill="#ffffff"/>
</g>
</svg>
