<svg preserveAspectRatio="none" width="100%" height="100%" overflow="visible" style="display: block;" viewBox="0 0 40 40" fill="none" xmlns="http://www.w3.org/2000/svg">
<g id="Button">
<rect width="40" height="40" rx="12" fill="#004CDB"/>
<path id="Vector" d="M21.4961 8C19.4963 8 17.8097 9.60241 17.8097 11.653C17.8097 12.6887 18.2404 13.6098 18.924 14.2681L19.3519 13.3312C18.9542 12.8703 18.7186 12.2822 18.7186 11.653C18.7186 10.2272 19.9261 9.01159 21.4961 9.01159C23.0661 9.01159 24.2735 10.2272 24.2735 11.653C24.2735 12.631 23.7053 13.5101 22.8416 13.9658L22.4637 15.1772C22.5597 15.1513 22.6543 15.1218 22.7472 15.0884L23.2097 15.9883C22.6882 16.3965 22.1835 16.9025 21.6425 17.5323L25.7506 27.614C28.2889 27.7442 30.738 26.2464 32 23.7919L26.5547 14.5281C25.5363 14.7544 24.717 15.0369 23.9856 15.4609L23.577 14.666C24.5394 14.0133 25.1825 12.9188 25.1825 11.653C25.1825 9.60247 23.496 8.00006 21.4961 8.00006V8ZM15.3016 8.33422C15.1673 8.3359 15.0262 8.36063 14.89 8.40997C14.5784 8.5226 14.3148 8.7547 14.2002 9.00513L14.1856 9.03716L10.908 14.2242C10.8002 14.4744 10.7877 14.8394 10.885 15.1779C10.9844 15.5239 11.1902 15.8132 11.4001 15.9322L18.6559 20.0438C18.8616 20.1604 19.1907 20.1789 19.4966 20.0677C19.7968 19.9587 20.0519 19.737 20.1735 19.4781L21.4541 15.3047C21.4566 15.3047 21.4592 15.3049 21.4617 15.305L21.7812 14.2804C21.7769 14.2809 21.7724 14.281 21.7681 14.2815L22.0158 13.4742L22.0304 13.4422C22.145 13.1918 22.1587 12.8173 22.0582 12.471C21.9577 12.1247 21.7501 11.8329 21.5313 11.7088L19.9114 10.7909C19.581 11.2505 19.4796 11.9075 19.8939 12.5258L20.0005 12.7243L20.52 13.0278L20.1031 13.939L20.0957 13.935L19.6857 14.8326C19.688 14.8338 19.6903 14.835 19.6926 14.8362L19.3743 15.5317L14.2441 12.6246L15.1837 10.5712L15.3898 10.1205L16.9479 11.0035C17.0265 10.4522 17.1965 9.92179 17.4698 9.40723L15.7632 8.44032C15.6363 8.36839 15.4743 8.33214 15.3016 8.33422ZM26.3068 15.7177L27.5229 18.1804L23.8938 20.3997L22.8966 18.3804L22.6777 17.9372L26.3068 15.7177V15.7177ZM25.9479 17.0914L23.9122 18.3365L24.2527 19.026L26.2884 17.781L25.9479 17.0914ZM12.8544 17.8915L11.8004 20.1953L15.3105 22.1843L16.3646 19.8805L12.8544 17.8915ZM27.8633 18.8699L29.0793 21.3324L25.4503 23.5517L24.4532 21.5325L24.2344 21.0892L27.8634 18.8698L27.8633 18.8699ZM27.5045 20.2435L25.4687 21.4886L25.8092 22.1781L27.845 20.9331L27.5045 20.2435H27.5045ZM12.108 21.5047H12.1079L8 30.4828L8.3092 31.5411L12.211 23.0136L13.0209 23.4726L9.11921 32L10.2491 31.5912L10.904 31.3542L10.5512 30.1427L11.6367 29.751L11.2834 28.5423L12.3702 28.149L12.099 27.2215L14.178 22.6776L12.108 21.5047Z" fill="#ffffff"/>
</g>
</svg>
