<svg preserveAspectRatio="none" width="100%" height="100%" overflow="visible" style="display: block;" viewBox="0 0 40 40" fill="none" xmlns="http://www.w3.org/2000/svg">
<g id="Button">
<rect width="40" height="40" rx="12" fill="#ffffff"/>
<path id="Vector" d="M20 8L29.1299 9.99198C29.6383 10.1029 30 10.5456 30 11.0569V21.9515C30 24.14 28.886 26.1837 27.0313 27.3977L20 32L12.9687 27.3977C11.114 26.1837 10 24.14 10 21.9515V11.0569C10 10.5456 10.3617 10.1029 10.8701 9.99198L20 8ZM20 10.235L12.2222 11.932V21.9515C12.2222 23.4105 12.9649 24.7729 14.2013 25.5823L20 29.3778L25.7987 25.5823C27.0351 24.7729 27.7778 23.4105 27.7778 21.9515V11.932L20 10.235ZM20 14.5455C21.2273 14.5455 22.2222 15.5223 22.2222 16.7273C22.2222 17.5344 21.7759 18.2391 21.1123 18.6165L21.1111 23.2727H18.8889L18.8888 18.6172C18.2247 18.2399 17.7778 17.5348 17.7778 16.7273C17.7778 15.5223 18.7727 14.5455 20 14.5455Z" fill="#000000"/>
</g>
</svg>
