<svg preserveAspectRatio="none" width="100%" height="100%" overflow="visible" style="display: block;" viewBox="0 0 19.7113 19.7113" fill="none" xmlns="http://www.w3.org/2000/svg">
<g id="Icon Container">
<rect width="19.7113" height="19.7113" rx="9.85564" fill="var(--fill-0, #312ECB)"/>
<path id="Vector" d="M10.9442 11.4766C12.4548 11.6333 13.8066 10.5357 13.9633 9.02504C14.12 7.51439 13.0223 6.16267 11.5117 6.00596C10.001 5.84926 8.64933 6.94689 8.49262 8.45754C8.46247 8.74816 8.47836 9.03414 8.53504 9.3055L5.76813 11.5523C5.69094 11.615 5.64225 11.7058 5.63193 11.8052L5.50295 13.0486C5.48151 13.2553 5.63056 13.4388 5.83726 13.4603L7.08059 13.5892C7.28729 13.6107 7.47084 13.4616 7.49228 13.2549L7.55677 12.6333L8.17843 12.6977C8.38513 12.7192 8.56868 12.5701 8.59012 12.3634L8.65461 11.7418L9.27628 11.8063C9.37574 11.8166 9.47458 11.7876 9.55177 11.7249L10.123 11.261C10.3769 11.3722 10.6536 11.4465 10.9442 11.4766ZM11.9786 7.56245C12.1435 7.57955 12.2948 7.66145 12.3993 7.79013C12.5038 7.91881 12.5529 8.08372 12.5358 8.2486C12.5187 8.41347 12.4368 8.5648 12.3081 8.66929C12.1794 8.77378 12.0145 8.82288 11.8496 8.80577C11.6847 8.78867 11.5334 8.70677 11.4289 8.57809C11.3244 8.44941 11.2753 8.2845 11.2924 8.11962C11.3095 7.95475 11.3914 7.80342 11.5201 7.69893C11.6488 7.59444 11.8137 7.54534 11.9786 7.56245Z" fill="var(--fill-0, white)"/>
</g>
</svg>
